HIERARCHY
ROOT ui
{
	 OFFSET 0 0 0
	 CHANNELS 3 XPosition YPosition Z Position
	 EndSite
	 {
	 OFFSET 0 -1 0
	 }
}
ROOT li
{
	 OFFSET 0 0 0
	 CHANNELS 3 XPosition YPosition Z Position
	 EndSite
	 {
	 OFFSET 0 -1 0
	 }
}
ROOT ul
{
	 OFFSET 0 0 0
	 CHANNELS 3 XPosition YPosition Z Position
	 EndSite
	 {
	 OFFSET 0 -1 0
	 }
}
ROOT ll
{
	 OFFSET 0 0 0
	 CHANNELS 3 XPosition YPosition Z Position
	 EndSite
	 {
	 OFFSET 0 -1 0
	 }
}
ROOT tt
{
	 OFFSET 0 0 0
	 CHANNELS 3 XPosition YPosition Z Position
	 EndSite
	 {
	 OFFSET 0 -1 0
	 }
}
ROOT tb
{
	 OFFSET 0 0 0
	 CHANNELS 3 XPosition YPosition Z Position
	 EndSite
	 {
	 OFFSET 0 -1 0
	 }
}
ROOT td
{
	 OFFSET 0 0 0
	 CHANNELS 3 XPosition YPosition Z Position
	 EndSite
	 {
	 OFFSET 0 -1 0
	 }
}
ROOT v
{
	 OFFSET 0 0 0
	 CHANNELS 3 XPosition YPosition Z Position
	 EndSite
	 {
	 OFFSET 0 -1 0
	 }
}
ROOT bn
{
	 OFFSET 0 0 0
	 CHANNELS 3 XPosition YPosition Z Position
	 EndSite
	 {
	 OFFSET 0 -1 0
	 }
}
MOTION
Frames: 27
Frame Time: 0.002
0.04089344024658203	0.005404305934906006	0		0.6219442138671875	-2.571173583984375	0		-0.8638517456054687	0.27984396362304687	0		-0.5033526306152344	-2.455242431640625	0		1.9221104736328125	-1.3777227783203125	0		3.391405029296875	-0.6800276489257813	0		4.65672216796875	-0.042092464447021485	0		5.882	0.3224518432617188	0		-0.3852027282714844	5.84392822265625	0		
-0.015032363891601562	0.0010778340101242065	0		0.6091116333007812	-2.566200439453125	0		-0.8677617797851562	0.27570956420898435	0		-0.4472390747070312	-2.4543427734375	0		1.9401905517578124	-1.38027392578125	0		3.36149169921875	-0.682847900390625	0		4.65967626953125	-0.054467636108398436	0		5.87587841796875	0.3514854736328125	0		-0.4010437927246094	5.835974609375	0		
0.03104939842224121	-0.004880984783172607	0		0.607170166015625	-2.569407958984375	0		-0.8675877075195313	0.2755050048828125	0		-0.509946533203125	-2.442552734375	0		1.9175355224609374	-1.3671798095703125	0		3.36389794921875	-0.6671873779296875	0		4.64497216796875	-0.046565589904785154	0		5.87599658203125	0.35085125732421873	0		-0.4007370300292969	5.8357587890625	0		
-0.04371842193603516	-0.0019131640195846557	0		0.6072997436523437	-2.569653076171875	0		-0.8673904418945313	0.2752950134277344	0		-0.4418865966796875	-2.447858154296875	0		1.9176937255859374	-1.3674560546875	0		3.367136474609375	-0.6635465087890625	0		4.646193359375	-0.04492298889160156	0		5.8724521484375	0.333049072265625	0		-0.400407470703125	5.83553759765625	0		
0.031455997467041016	-0.005347815036773682	0		0.5585903930664062	-2.5611181640625	0		-0.9350791015625	0.2811689758300781	0		-0.5215410766601563	-2.435802734375	0		1.9280848388671874	-1.3548973388671874	0		3.352803466796875	-0.6346232299804687	0		4.64050537109375	-0.039170688629150394	0		5.8799541015625	0.3649931030273437	0		-0.38589697265625	5.8450869140625	0		
-0.008118353843688964	0.006054794788360596	0		0.5878055419921875	-2.5598330078125	0		-0.8628539428710937	0.2787984619140625	0		-0.44632904052734373	-2.43523095703125	0		1.9303465576171874	-1.3522098388671875	0		3.3681279296875	-0.629176513671875	0		4.65074755859375	-0.039671836853027345	0		5.87277880859375	0.331765380859375	0		-0.3855218200683594	5.84485888671875	0		
0.0319742317199707	-0.005822461128234863	0		0.5751078491210937	-2.55487353515625	0		-0.8625737915039062	0.2785802001953125	0		-0.48584402465820314	-2.41881787109375	0		1.9357041015625	-1.345568115234375	0		3.359711181640625	-0.609342041015625	0		4.6361513671875	-0.03176652717590332	0		5.87665380859375	0.3482992248535156	0		-0.3992830810546875	5.8348564453125	0		
0.03938895034790039	8.299030065536499E-4	0		0.6003099975585937	-2.55852001953125	0		-0.8681840209960937	0.28345919799804686	0		-0.45059225463867186	-2.419604736328125	0		1.9242882080078125	-1.3266488037109374	0		3.36000244140625	-0.6096407470703125	0		4.6392607421875	-0.04413668060302734	0		5.87063427734375	0.37562322998046876	0		-0.38567547607421876	5.846419921875	0		
-0.02229326629638672	5.994229912757873E-4	0		0.5486465454101562	-2.554921630859375	0		-0.9339091186523437	0.2803092041015625	0		-0.5111072692871094	-2.406844482421875	0		1.9207686767578125	-1.3158470458984375	0		3.3355947265625	-0.592526611328125	0		4.63368310546875	-0.0383491096496582	0		5.87225830078125	0.3698067626953125	0		-0.3852484130859375	5.84619873046875	0		
-0.012972299575805663	-7.644140124320984E-4	0		0.5857808227539063	-2.565743896484375	0		-0.8565283813476563	0.28186285400390626	0		-0.4948391418457031	-2.409313720703125	0		1.900235107421875	-1.3067576904296876	0		3.369871337890625	-0.5963429565429688	0		4.63889111328125	-0.04671686935424805	0		5.87734130859375	0.3465928955078125	0		-0.36871246337890623	5.8527265625	0		
-0.03151614570617676	0.006333327770233154	0		0.5652544555664063	-2.55562158203125	0		-0.9200307006835937	0.2916961364746094	0		-0.486383544921875	-2.4006455078125	0		1.901833984375	-1.290007080078125	0		3.3538681640625	-0.555322998046875	0		4.63436083984375	-0.038901561737060546	0		5.87503125	0.39119439697265623	0		-0.3692680969238281	5.8545390625	0		
0.038860179901123046	0.008009916305541992	0		0.59572509765625	-2.54630615234375	0		-0.855844482421875	0.2814793701171875	0		-0.49490640258789065	-2.390691162109375	0		1.902158935546875	-1.29021875	0		3.334057373046875	-0.5642244262695313	0		4.63572998046875	-0.03715509414672852	0		5.87158984375	0.37360525512695314	0		-0.3840198974609375	5.845591796875	0		
-0.036962310791015626	-9.413840174674988E-4	0		0.543109130859375	-2.541634033203125	0		-0.8664961547851563	0.28248333740234377	0		-0.49254464721679686	-2.387899658203125	0		1.8976739501953126	-1.278330810546875	0		3.329786865234375	-0.5393472900390625	0		4.6229794921875	-0.042153324127197266	0		5.87182421875	0.37322998046875	0		-0.38463711547851565	5.84643115234375	0		
0.0342647705078125	-0.007250164031982422	0		0.6021348876953125	-2.55974951171875	0		-0.8710967407226563	0.287403076171875	0		-0.4881721496582031	-2.38412646484375	0		1.8941644287109376	-1.2674378662109376	0		3.343100341796875	-0.5397326049804687	0		4.62329638671875	-0.042333404541015626	0		5.8757314453125	0.3900685119628906	0		-0.38429904174804685	5.84626904296875	0		
-0.04531043243408203	8.926730155944824E-4	0		0.5556016235351563	-2.549140380859375	0		-0.8508300170898437	0.2849335021972656	0		-0.4797285766601562	-2.375404052734375	0		1.8985772705078126	-1.2606527099609375	0		3.32985498046875	-0.5116607971191406	0		4.631564453125	-0.044613948822021486	0		5.88078857421875	0.36712164306640627	0		-0.3830089416503906	5.84510595703125	0		
0.041960819244384766	-6.42831027507782E-4	0		0.582869140625	-2.550706298828125	0		-0.8505479125976563	0.2848009033203125	0		-0.494391357421875	-2.372294189453125	0		1.9001363525390624	-1.2437987060546876	0		3.35290966796875	-0.5261553955078125	0		4.62875048828125	-0.05068756866455078	0		5.87614794921875	0.389595703125	0		-0.3837205200195313	5.845990234375	0		
-0.02968789482116699	0.005405261039733887	0		0.548339599609375	-2.538253662109375	0		-0.862125	0.2948762512207031	0		-0.45814071655273436	-2.373990478515625	0		1.888420654296875	-1.2427103271484374	0		3.33067626953125	-0.4948870849609375	0		4.62491552734375	-0.056715576171875	0		5.880498046875	0.3719786682128906	0		-0.38348452758789064	5.845875	0		
0.030428365707397462	-0.0026564030647277834	0		0.571510009765625	-2.543715087890625	0		-0.8700180053710938	0.286906005859375	0		-0.5006563110351563	-2.359396240234375	0		1.8937783203125	-1.235873779296875	0		3.336786865234375	-0.5030549926757812	0		4.6251533203125	-0.056779026031494144	0		5.87650390625	0.38934921264648437	0		-0.38328680419921873	5.84577783203125	0		
-0.03535354614257812	-0.0016671420335769654	0		0.544761962890625	-2.542349609375	0		-0.8698110961914063	0.2868231506347656	0		-0.45357684326171877	-2.369232421875	0		1.8850806884765625	-1.230787353515625	0		3.331130615234375	-0.49500436401367187	0		4.6222666015625	-0.06276336669921875	0		5.8766533203125	0.38931146240234377	0		-0.38312985229492186	5.84569970703125	0		
0.03573534393310547	-0.007865403175354004	0		0.5470007934570312	-2.540430908203125	0		-0.8615077514648437	0.29462890625	0		-0.47135348510742187	-2.368002197265625	0		1.8524222412109375	-1.2212906494140625	0		3.335217529296875	-0.5010857543945313	0		4.6214140625	-0.06475040435791016	0		5.88300390625	0.35967349243164065	0		-0.38203228759765623	5.84462451171875	0		
-0.025870546340942383	0.00809832763671875	0		0.5522904052734375	-2.533537841796875	0		-0.8563033447265626	0.29850384521484374	0		-0.4270550537109375	-2.36075048828125	0		1.90251171875	-1.226103759765625	0		3.346994873046875	-0.46225729370117186	0		4.61668896484375	-0.05664361572265625	0		5.8853955078125	0.38215386962890624	0		-0.3809961853027344	5.84257080078125	0		
0.04309818267822266	-0.0010198650360107421	0		0.5493541259765625	-2.538489990234375	0		-0.8612650146484375	0.2945630187988281	0		-0.47276312255859376	-2.35102734375	0		1.848884521484375	-1.21021826171875	0		3.31887060546875	-0.4767648315429687	0		4.61271630859375	-0.06151972198486328	0		5.87279638671875	0.407007080078125	0		-0.3829273681640625	5.845587890625	0		
-0.031813106536865234	0.0012019239664077758	0		0.5474263916015625	-2.5404326171875	0		-0.8752371826171875	0.29279046630859373	0		-0.44074652099609374	-2.3565322265625	0		1.8859140625	-1.21376611328125	0		3.325245849609375	-0.45779364013671875	0		4.60968408203125	-0.06737972259521484	0		5.86916064453125	0.3900423889160156	0		-0.382959228515625	5.84559814453125	0		
-0.018833545684814452	-9.641010165214539E-4	0		0.5474840087890624	-2.540380126953125	0		-0.8652622680664063	0.29065789794921876	0		-0.47463958740234374	-2.35295166015625	0		1.84900146484375	-1.210096923828125	0		3.32526708984375	-0.45769281005859375	0		4.59969970703125	-0.06709601593017578	0		5.87472705078125	0.3675855712890625	0		-0.39720639038085936	5.8358603515625	0		
-0.03893494415283203	-0.00457245397567749	0		0.5474907836914062	-2.540299072265625	0		-0.856180419921875	0.29856756591796874	0		-0.46070217895507815	-2.357113525390625	0		1.856143310546875	-1.2001055908203124	0		3.33053955078125	-0.43864349365234373	0		4.61453125	-0.07518014526367188	0		5.88321142578125	0.360644287109375	0		-0.38319488525390627	5.8456982421875	0		
-0.008805573463439942	0.009044922828674317	0		0.5505117797851562	-2.536237060546875	0		-0.8522135620117187	0.30258697509765625	0		-0.458716552734375	-2.35505419921875	0		1.8522677001953125	-1.187907470703125	0		3.312443115234375	-0.4391914367675781	0		4.59957177734375	-0.06675284576416016	0		5.87831494140625	0.38542401123046877	0		-0.3833972473144531	5.845791015625	0		
0.037989398956298825	0.004424575805664062	0		0.57434326171875	-2.541478515625	0		-0.8523543701171875	0.3027013244628906	0		-0.42892132568359376	-2.3624111328125	0		1.845268798828125	-1.18062939453125	0		3.3575830078125	-0.42271780395507813	0		4.60634130859375	-0.07264347076416015	0		5.87266162109375	0.40855868530273437	0		-0.38364599609375	5.84591455078125	0		
